<svg id="visual" viewBox="0 0 1920 1080" width="1920" height="1080" xmlns="http://www.w3.org/2000/svg" xmlns:xlink="http://www.w3.org/1999/xlink" version="1.1"><path d="M0 249L45.7 268.8C91.3 288.7 182.7 328.3 274.2 350C365.7 371.7 457.3 375.3 548.8 343C640.3 310.7 731.7 242.3 823 224.3C914.3 206.3 1005.7 238.7 1097 258.5C1188.3 278.3 1279.7 285.7 1371.2 298.3C1462.7 311 1554.3 329 1645.8 327.2C1737.3 325.3 1828.7 303.7 1874.3 292.8L1920 282L1920 0L1874.3 0C1828.7 0 1737.3 0 1645.8 0C1554.3 0 1462.7 0 1371.2 0C1279.7 0 1188.3 0 1097 0C1005.7 0 914.3 0 823 0C731.7 0 640.3 0 548.8 0C457.3 0 365.7 0 274.2 0C182.7 0 91.3 0 45.7 0L0 0Z" fill="#b76aff"></path><path d="M0 390L45.7 404.3C91.3 418.7 182.7 447.3 274.2 461.7C365.7 476 457.3 476 548.8 443.7C640.3 411.3 731.7 346.7 823 343.2C914.3 339.7 1005.7 397.3 1097 429.7C1188.3 462 1279.7 469 1371.2 470.7C1462.7 472.3 1554.3 468.7 1645.8 463.3C1737.3 458 1828.7 451 1874.3 447.5L1920 444L1920 280L1874.3 290.8C1828.7 301.7 1737.3 323.3 1645.8 325.2C1554.3 327 1462.7 309 1371.2 296.3C1279.7 283.7 1188.3 276.3 1097 256.5C1005.7 236.7 914.3 204.3 823 222.3C731.7 240.3 640.3 308.7 548.8 341C457.3 373.3 365.7 369.7 274.2 348C182.7 326.3 91.3 286.7 45.7 266.8L0 247Z" fill="#a74dff"></path><path d="M0 638L45.7 641.7C91.3 645.3 182.7 652.7 274.2 663.5C365.7 674.3 457.3 688.7 548.8 683.2C640.3 677.7 731.7 652.3 823 650.5C914.3 648.7 1005.7 670.3 1097 681.2C1188.3 692 1279.7 692 1371.2 686.7C1462.7 681.3 1554.3 670.7 1645.8 676.2C1737.3 681.7 1828.7 703.3 1874.3 714.2L1920 725L1920 442L1874.3 445.5C1828.7 449 1737.3 456 1645.8 461.3C1554.3 466.7 1462.7 470.3 1371.2 468.7C1279.7 467 1188.3 460 1097 427.7C1005.7 395.3 914.3 337.7 823 341.2C731.7 344.7 640.3 409.3 548.8 441.7C457.3 474 365.7 474 274.2 459.7C182.7 445.3 91.3 416.7 45.7 402.3L0 388Z" fill="#9527ff"></path><path d="M0 768L45.7 764.3C91.3 760.7 182.7 753.3 274.2 764.2C365.7 775 457.3 804 548.8 811.2C640.3 818.3 731.7 803.7 823 796.3C914.3 789 1005.7 789 1097 789C1188.3 789 1279.7 789 1371.2 778.3C1462.7 767.7 1554.3 746.3 1645.8 760.8C1737.3 775.3 1828.7 825.7 1874.3 850.8L1920 876L1920 723L1874.3 712.2C1828.7 701.3 1737.3 679.7 1645.8 674.2C1554.3 668.7 1462.7 679.3 1371.2 684.7C1279.7 690 1188.3 690 1097 679.2C1005.7 668.3 914.3 646.7 823 648.5C731.7 650.3 640.3 675.7 548.8 681.2C457.3 686.7 365.7 672.3 274.2 661.5C182.7 650.7 91.3 643.3 45.7 639.7L0 636Z" fill="#8400f1"></path><path d="M0 984L45.7 976.8C91.3 969.7 182.7 955.3 274.2 949.8C365.7 944.3 457.3 947.7 548.8 960.2C640.3 972.7 731.7 994.3 823 1005.2C914.3 1016 1005.7 1016 1097 1014.2C1188.3 1012.3 1279.7 1008.7 1371.2 1001.5C1462.7 994.3 1554.3 983.7 1645.8 978.3C1737.3 973 1828.7 973 1874.3 973L1920 973L1920 874L1874.3 848.8C1828.7 823.7 1737.3 773.3 1645.8 758.8C1554.3 744.3 1462.7 765.7 1371.2 776.3C1279.7 787 1188.3 787 1097 787C1005.7 787 914.3 787 823 794.3C731.7 801.7 640.3 816.3 548.8 809.2C457.3 802 365.7 773 274.2 762.2C182.7 751.3 91.3 758.7 45.7 762.3L0 766Z" fill="#7500d5"></path><path d="M0 1081L45.7 1081C91.3 1081 182.7 1081 274.2 1081C365.7 1081 457.3 1081 548.8 1081C640.3 1081 731.7 1081 823 1081C914.3 1081 1005.7 1081 1097 1081C1188.3 1081 1279.7 1081 1371.2 1081C1462.7 1081 1554.3 1081 1645.8 1081C1737.3 1081 1828.7 1081 1874.3 1081L1920 1081L1920 971L1874.3 971C1828.7 971 1737.3 971 1645.8 976.3C1554.3 981.7 1462.7 992.3 1371.2 999.5C1279.7 1006.7 1188.3 1010.3 1097 1012.2C1005.7 1014 914.3 1014 823 1003.2C731.7 992.3 640.3 970.7 548.8 958.2C457.3 945.7 365.7 942.3 274.2 947.8C182.7 953.3 91.3 967.7 45.7 974.8L0 982Z" fill="#6700ba"></path></svg>