<svg id="visual" viewBox="0 0 1920 1080" width="1920" height="1080" xmlns="http://www.w3.org/2000/svg" xmlns:xlink="http://www.w3.org/1999/xlink" version="1.1"><rect x="0" y="0" width="1920" height="1080" fill="#f3f3f3"></rect><path d="M0 162L53.3 167.8C106.7 173.7 213.3 185.3 320 178.7C426.7 172 533.3 147 640 133.8C746.7 120.7 853.3 119.3 960 132.5C1066.7 145.7 1173.3 173.3 1280 183.3C1386.7 193.3 1493.3 185.7 1600 176.3C1706.7 167 1813.3 156 1866.7 150.5L1920 145L1920 0L1866.7 0C1813.3 0 1706.7 0 1600 0C1493.3 0 1386.7 0 1280 0C1173.3 0 1066.7 0 960 0C853.3 0 746.7 0 640 0C533.3 0 426.7 0 320 0C213.3 0 106.7 0 53.3 0L0 0Z" fill="#c1b9f4"></path></svg>